<svg width="1961" height="248" viewBox="0 0 1961 248" fill="none" xmlns="http://www.w3.org/2000/svg">
<path d="M602.632 199H643.096L649.501 160.865L666.094 143.108L689.964 199H738.288L700.735 116.326L761.868 49.9536H714.708L659.98 110.213H657.943L667.84 49.9536H627.376L602.632 199ZM796.559 136.121C798.378 125.059 805.947 118.364 815.772 118.364C826.033 118.364 830.691 125.059 828.871 136.121L818.392 199H858.564L870.5 127.679C874.648 103.226 862.13 85.7597 838.478 85.7597C821.958 85.7597 807.402 94.2017 800.343 108.466H799.179L802.672 87.2152H764.537L745.906 199H786.079L796.559 136.121ZM927.57 201.038C963.958 201.038 989.357 177.749 995.106 143.399C1000.71 109.048 983.025 85.7597 946.783 85.7597C910.249 85.7597 884.85 109.048 879.246 143.399C873.497 177.749 891.181 201.038 927.57 201.038ZM932.518 171.345C921.966 171.345 917.381 160.647 920.292 143.108C923.13 125.568 931.354 114.87 941.834 114.87C952.314 114.87 956.899 125.568 954.06 143.108C951.149 160.647 942.925 171.345 932.518 171.345ZM1051.56 201.038C1084.74 201.038 1108.03 182.116 1113.56 152.423H1076.3C1073.39 164.067 1066.11 170.472 1057.09 170.472C1046.61 170.472 1041.37 161.447 1044.28 143.108C1047.19 124.768 1055.63 115.744 1066.4 115.744C1075.14 115.744 1080.09 122.148 1079.21 133.792H1116.47C1121.13 104.682 1103.67 85.7597 1070.77 85.7597C1034.38 85.7597 1008.76 109.048 1003.23 143.399C997.412 177.749 1015.17 201.038 1051.56 201.038ZM1118.18 199H1158.35L1163.59 167.342L1170.87 159.701L1187.17 199H1233.17L1204.57 136.267L1250.63 87.2152H1205.51L1172.03 124.768H1170.65L1183.1 49.9536H1142.92L1118.18 199ZM1287.33 201.038C1323.71 201.038 1349.11 177.749 1354.86 143.399C1360.47 109.048 1342.78 85.7597 1306.54 85.7597C1270 85.7597 1244.61 109.048 1239 143.399C1233.25 177.749 1250.94 201.038 1287.33 201.038ZM1292.27 171.345C1281.72 171.345 1277.14 160.647 1280.05 143.108C1282.89 125.568 1291.11 114.87 1301.59 114.87C1312.07 114.87 1316.65 125.568 1313.82 143.108C1310.9 160.647 1302.68 171.345 1292.27 171.345ZM1443.48 87.2152H1423.03L1423.83 82.2664C1424.78 77.0265 1427.4 73.5332 1434.89 73.5332C1437.88 73.5332 1441.95 74.1154 1444.79 74.9887L1455.27 46.1692C1450.98 45.0048 1440.5 42.967 1430.24 42.967C1405.86 42.967 1387.81 56.3579 1383.37 84.013L1382.86 87.2152H1368.67L1363.72 116.326H1377.98L1364.15 199H1404.33L1418.15 116.326H1438.53L1443.48 87.2152ZM1521.84 87.2152H1501.39L1502.19 82.2664C1503.13 77.0265 1505.75 73.5332 1513.25 73.5332C1516.23 73.5332 1520.31 74.1154 1523.15 74.9887L1533.63 46.1692C1529.33 45.0048 1518.85 42.967 1508.59 42.967C1484.21 42.967 1466.16 56.3579 1461.72 84.013L1461.21 87.2152H1447.02L1442.07 116.326H1456.34L1442.51 199H1482.68L1496.51 116.326H1516.89L1521.84 87.2152ZM1704.31 49.9536H1663.85L1651.04 127.97H1649.88L1609.71 49.9536H1575.35L1550.61 199H1591.07L1604.17 120.692H1605.05L1645.8 199H1679.57L1704.31 49.9536ZM1709.75 82.5575H1754.58L1735.37 199H1775.25L1794.46 82.5575H1839.29L1844.82 49.9536H1715.28L1709.75 82.5575ZM1831.21 199H1871.67L1881.28 140.779H1939.21L1944.74 108.175H1886.81L1890.89 82.5575H1955.22L1960.75 49.9536H1855.95L1831.21 199Z" fill="black"/>
<circle cx="260.489" cy="122.389" r="84.7379" fill="black"/>
<rect y="43.9265" width="159.507" height="159.507" rx="3.73844" fill="black"/>
<path d="M497.994 105.282C505.417 106.104 512.229 109.444 517.319 114.136C527.577 123.599 529.592 136.853 522.169 148.569C535.45 152.121 546 163.52 546 177.675C546 195.382 529.963 208 512.971 208H380.962C363.971 208 347.934 195.382 347.934 177.675C347.934 163.52 358.484 152.121 371.791 148.569C368.901 144.01 367.311 138.788 367.311 133.38C367.311 126.859 369.829 119.464 375.316 113.95C379.345 109.868 384.992 106.846 392.361 105.971C374.866 77.2898 416.191 34.2677 438.113 20.3245C439.041 19.7414 440.207 20.4836 440.128 21.5704C439.969 42.8032 438.352 65.8385 465.496 64.4335C473.581 63.8504 483.601 68.3302 489.512 73.7113C495.768 79.4105 499.77 87.2038 499.77 95.5537C499.77 98.8672 499.161 102.181 497.994 105.282Z" fill="black"/>
</svg>
